Raleway-ExtraLight-Italic-OTF.ufo
<glyph name="parenleft" format="1">
  <advance width="238"/>
  <unicode hex="0028"/>
  <outline>
    <contour>
      <point x="48" y="257" type="curve" smooth="yes"/>
      <point x="48" y="167"/>
      <point x="69" y="60"/>
      <point x="108" y="-29" type="curve"/>
      <point x="137" y="-13" type="line"/>
      <point x="100" y="72"/>
      <point x="81" y="182"/>
      <point x="81" y="265" type="curve" smooth="yes"/>
      <point x="81" y="424"/>
      <point x="202" y="609"/>
      <point x="292" y="714" type="curve"/>
      <point x="269" y="730" type="line"/>
      <point x="148" y="575"/>
      <point x="48" y="435"/>
    </contour>
  </outline>
</glyph>
<glyph name="period" format="1">
  <advance width="167"/>
  <unicode hex="002E"/>
  <outline>
    <contour>
      <point x="37" y="0" type="line"/>
      <point x="53" y="74" type="line"/>
      <point x="22" y="74" type="line"/>
      <point x="6" y="0" type="line"/>
    </contour>
  </outline>
</glyph>
<glyph name="at" format="1">
  <advance width="794"/>
  <unicode hex="0040"/>
  <outline>
    <contour>
      <point x="546" y="9" type="curve" smooth="yes"/>
      <point x="521" y="9"/>
      <point x="508" y="22"/>
      <point x="508" y="51" type="curve" smooth="yes"/>
      <point x="508" y="59"/>
      <point x="509" y="73"/>
      <point x="515" y="99" type="curve" smooth="yes"/>
      <point x="590" y="450" type="line"/>
      <point x="562" y="450" type="line"/>
      <point x="544" y="362" type="line"/>
      <point x="523" y="418"/>
      <point x="476" y="451"/>
      <point x="413" y="451" type="curve" smooth="yes"/>
      <point x="287" y="451"/>
      <point x="175" y="325"/>
      <point x="175" y="184" type="curve" smooth="yes"/>
      <point x="175" y="82"/>
      <point x="233" y="9"/>
      <point x="320" y="9" type="curve" smooth="yes"/>
      <point x="376" y="9"/>
      <point x="439" y="38"/>
      <point x="484" y="82" type="curve"/>
      <point x="481" y="69"/>
      <point x="481" y="55"/>
      <point x="481" y="45" type="curve" smooth="yes"/>
      <point x="481" y="2"/>
      <point x="499" y="-16"/>
      <point x="535" y="-16" type="curve" smooth="yes"/>
      <point x="650" y="-16"/>
      <point x="731" y="161"/>
      <point x="731" y="305" type="curve" smooth="yes"/>
      <point x="731" y="478"/>
      <point x="615" y="603"/>
      <point x="452" y="603" type="curve" smooth="yes"/>
      <point x="241" y="603"/>
      <point x="26" y="394"/>
      <point x="26" y="158" type="curve" smooth="yes"/>
      <point x="26" y="-15"/>
      <point x="140" y="-146"/>
      <point x="298" y="-146" type="curve" smooth="yes"/>
      <point x="349" y="-146"/>
      <point x="408" y="-132"/>
      <point x="463" y="-106" type="curve"/>
      <point x="457" y="-84" type="line"/>
      <point x="406" y="-109"/>
      <point x="358" y="-122"/>
      <point x="308" y="-122" type="curve" smooth="yes"/>
      <point x="155" y="-122"/>
      <point x="50" y="-2"/>
      <point x="50" y="159" type="curve" smooth="yes"/>
      <point x="50" y="379"/>
      <point x="246" y="579"/>
      <point x="447" y="579" type="curve" smooth="yes"/>
      <point x="602" y="579"/>
      <point x="707" y="461"/>
      <point x="707" y="300" type="curve" smooth="yes"/>
      <point x="707" y="164"/>
      <point x="631" y="9"/>
    </contour>
    <contour>
      <point x="330" y="35" type="curve" smooth="yes"/>
      <point x="254" y="35"/>
      <point x="203" y="100"/>
      <point x="203" y="189" type="curve" smooth="yes"/>
      <point x="203" y="314"/>
      <point x="304" y="424"/>
      <point x="410" y="424" type="curve" smooth="yes"/>
      <point x="470" y="424"/>
      <point x="517" y="389"/>
      <point x="535" y="327" type="curve"/>
      <point x="498" y="144" type="line"/>
      <point x="474" y="85"/>
      <point x="396" y="35"/>
    </contour>
  </outline>
</glyph>
<glyph name="A" format="1">
  <advance width="648"/>
  <unicode hex="0041"/>
  <outline>
    <contour>
      <point x="415" y="707" type="move" name="top"/>
    </contour>
    <contour>
      <point x="554" y="7" type="move" name="bottom"/>
    </contour>
    <contour>
      <point x="-41" y="0" type="line"/>
      <point x="-3" y="0" type="line"/>
      <point x="148" y="245" type="line"/>
      <point x="484" y="245" type="line"/>
      <point x="531" y="0" type="line"/>
      <point x="568" y="0" type="line"/>
      <point x="430" y="710" type="line"/>
      <point x="400" y="710" type="line"/>
    </contour>
    <contour>
      <point x="164" y="275" type="line"/>
      <point x="406" y="666" type="line"/>
      <point x="480" y="275" type="line"/>
    </contour>
  </outline>
</glyph>
<glyph name="V" format="1">
  <advance width="645"/>
  <unicode hex="0056"/>
  <outline>
    <contour>
      <point x="238" y="0" type="line"/>
      <point x="272" y="0" type="line"/>
      <point x="712" y="710" type="line"/>
      <point x="675" y="710" type="line"/>
      <point x="265" y="43" type="line"/>
      <point x="136" y="710" type="line"/>
      <point x="100" y="710" type="line"/>
    </contour>
  </outline>
</glyph>
<glyph name="b" format="1">
  <advance width="581"/>
  <unicode hex="0062"/>
  <outline>
    <contour>
      <point x="238" y="-10" type="curve" smooth="yes"/>
      <point x="386" y="-10"/>
      <point x="535" y="145"/>
      <point x="535" y="314" type="curve" smooth="yes"/>
      <point x="535" y="420"/>
      <point x="477" y="528"/>
      <point x="357" y="528" type="curve" smooth="yes"/>
      <point x="273" y="528"/>
      <point x="198" y="476"/>
      <point x="134" y="402" type="curve"/>
      <point x="204" y="730" type="line"/>
      <point x="170" y="730" type="line"/>
      <point x="15" y="0" type="line"/>
      <point x="46" y="0" type="line"/>
      <point x="69" y="106" type="line"/>
      <point x="93" y="44"/>
      <point x="151" y="-10"/>
    </contour>
    <contour>
      <point x="239" y="22" type="curve" smooth="yes"/>
      <point x="159" y="22"/>
      <point x="92" y="72"/>
      <point x="81" y="149" type="curve"/>
      <point x="124" y="359" type="line"/>
      <point x="185" y="432"/>
      <point x="256" y="496"/>
      <point x="342" y="496" type="curve" smooth="yes"/>
      <point x="444" y="496"/>
      <point x="500" y="407"/>
      <point x="500" y="310" type="curve" smooth="yes"/>
      <point x="500" y="165"/>
      <point x="373" y="22"/>
    </contour>
  </outline>
</glyph>
<glyph name="c" format="1">
  <advance width="517"/>
  <unicode hex="0063"/>
  <outline>
    <contour>
      <point x="332" y="520" type="move" name="top"/>
    </contour>
    <contour>
      <point x="226" y="0" type="move" name="bottom"/>
    </contour>
    <contour>
      <point x="220" y="-10" type="curve" smooth="yes"/>
      <point x="309" y="-10"/>
      <point x="403" y="43"/>
      <point x="442" y="115" type="curve"/>
      <point x="410" y="125" type="line"/>
      <point x="384" y="70"/>
      <point x="297" y="22"/>
      <point x="224" y="22" type="curve" smooth="yes"/>
      <point x="129" y="22"/>
      <point x="64" y="108"/>
      <point x="64" y="215" type="curve" smooth="yes"/>
      <point x="64" y="367"/>
      <point x="192" y="496"/>
      <point x="324" y="496" type="curve" smooth="yes"/>
      <point x="392" y="496"/>
      <point x="445" y="459"/>
      <point x="463" y="398" type="curve"/>
      <point x="499" y="410" type="line"/>
      <point x="481" y="483"/>
      <point x="420" y="528"/>
      <point x="333" y="528" type="curve" smooth="yes"/>
      <point x="174" y="528"/>
      <point x="29" y="381"/>
      <point x="29" y="210" type="curve" smooth="yes"/>
      <point x="29" y="88"/>
      <point x="105" y="-10"/>
    </contour>
  </outline>
</glyph>
<glyph name="f" format="1">
  <advance width="301"/>
  <unicode hex="0066"/>
  <outline>
    <contour>
      <point x="-13" y="-213" type="line"/>
      <point x="21" y="-213" type="line"/>
      <point x="170" y="490" type="line"/>
      <point x="314" y="490" type="line"/>
      <point x="320" y="520" type="line"/>
      <point x="177" y="520" type="line"/>
      <point x="181" y="539" type="line" smooth="yes"/>
      <point x="203" y="649"/>
      <point x="255" y="709"/>
      <point x="323" y="709" type="curve" smooth="yes"/>
      <point x="351" y="709"/>
      <point x="378" y="699"/>
      <point x="391" y="684" type="curve"/>
      <point x="412" y="706" type="line"/>
      <point x="396" y="726"/>
      <point x="362" y="740"/>
      <point x="325" y="740" type="curve" smooth="yes"/>
      <point x="241" y="740"/>
      <point x="172" y="665"/>
      <point x="147" y="539" type="curve" smooth="yes"/>
      <point x="143" y="520" type="line"/>
      <point x="72" y="520" type="line"/>
      <point x="66" y="490" type="line"/>
      <point x="136" y="490" type="line"/>
    </contour>
  </outline>
</glyph>
<glyph name="q" format="1">
  <advance width="581"/>
  <unicode hex="0071"/>
  <outline>
    <contour>
      <point x="205" y="-10" type="curve" smooth="yes"/>
      <point x="282" y="-10"/>
      <point x="358" y="34"/>
      <point x="429" y="116" type="curve"/>
      <point x="369" y="-167" type="line" smooth="yes"/>
      <point x="368" y="-170"/>
      <point x="367" y="-173"/>
      <point x="367" y="-177" type="curve" smooth="yes"/>
      <point x="367" y="-203"/>
      <point x="388" y="-212"/>
      <point x="411" y="-212" type="curve"/>
      <point x="417" y="-181" type="line"/>
      <point x="408" y="-180"/>
      <point x="403" y="-175"/>
      <point x="403" y="-166" type="curve" smooth="yes"/>
      <point x="403" y="-164"/>
      <point x="403" y="-162"/>
      <point x="404" y="-158" type="curve" smooth="yes"/>
      <point x="548" y="520" type="line"/>
      <point x="516" y="520" type="line"/>
      <point x="494" y="412" type="line"/>
      <point x="469" y="477"/>
      <point x="406" y="528"/>
      <point x="329" y="528" type="curve" smooth="yes"/>
      <point x="178" y="528"/>
      <point x="28" y="372"/>
      <point x="28" y="205" type="curve" smooth="yes"/>
      <point x="28" y="92"/>
      <point x="90" y="-10"/>
    </contour>
    <contour>
      <point x="218" y="22" type="curve" smooth="yes"/>
      <point x="120" y="22"/>
      <point x="62" y="108"/>
      <point x="62" y="210" type="curve" smooth="yes"/>
      <point x="62" y="349"/>
      <point x="188" y="496"/>
      <point x="327" y="496" type="curve" smooth="yes"/>
      <point x="413" y="496"/>
      <point x="469" y="430"/>
      <point x="480" y="352" type="curve"/>
      <point x="439" y="164" type="line"/>
      <point x="387" y="89"/>
      <point x="307" y="22"/>
    </contour>
  </outline>
</glyph>
<glyph name="braceleft" format="1">
  <advance width="227"/>
  <unicode hex="007B"/>
  <outline>
    <contour>
      <point x="264" y="709" type="line"/>
      <point x="271" y="740" type="line"/>
      <point x="208" y="740" type="line" smooth="yes"/>
      <point x="202" y="740"/>
      <point x="185" y="736"/>
      <point x="180" y="710" type="curve" smooth="yes"/>
      <point x="119" y="423" type="line" smooth="yes"/>
      <point x="117" y="412"/>
      <point x="105" y="376"/>
      <point x="78" y="376" type="curve"/>
      <point x="72" y="346" type="line"/>
      <point x="88" y="344"/>
      <point x="95" y="330"/>
      <point x="95" y="314" type="curve" smooth="yes"/>
      <point x="95" y="308"/>
      <point x="94" y="302"/>
      <point x="93" y="297" type="curve" smooth="yes"/>
      <point x="29" y="-1" type="line" smooth="yes"/>
      <point x="28" y="-5"/>
      <point x="28" y="-9"/>
      <point x="28" y="-12" type="curve" smooth="yes"/>
      <point x="28" y="-26"/>
      <point x="36" y="-31"/>
      <point x="44" y="-31" type="curve" smooth="yes"/>
      <point x="107" y="-31" type="line"/>
      <point x="114" y="0" type="line"/>
      <point x="61" y="0" type="line"/>
      <point x="125" y="302" type="line"/>
      <point x="126" y="306"/>
      <point x="127" y="314"/>
      <point x="127" y="323" type="curve" smooth="yes"/>
      <point x="127" y="336"/>
      <point x="125" y="350"/>
      <point x="116" y="360" type="curve"/>
      <point x="140" y="379"/>
      <point x="148" y="408"/>
      <point x="150" y="418" type="curve" smooth="yes"/>
      <point x="212" y="709" type="line"/>
    </contour>
  </outline>
</glyph>
<glyph name="section" format="1">
  <advance width="474"/>
  <unicode hex="00A7"/>
  <outline>
    <contour>
      <point x="355" y="185" type="curve"/>
      <point x="386" y="212"/>
      <point x="412" y="261"/>
      <point x="412" y="309" type="curve" smooth="yes"/>
      <point x="412" y="397"/>
      <point x="336" y="431"/>
      <point x="257" y="431" type="curve" smooth="yes"/>
      <point x="183" y="431"/>
      <point x="132" y="457"/>
      <point x="132" y="526" type="curve" smooth="yes"/>
      <point x="132" y="624"/>
      <point x="230" y="683"/>
      <point x="308" y="683" type="curve" smooth="yes"/>
      <point x="356" y="683"/>
      <point x="416" y="671"/>
      <point x="429" y="621" type="curve"/>
      <point x="460" y="634" type="line"/>
      <point x="439" y="682"/>
      <point x="402" y="715"/>
      <point x="314" y="715" type="curve" smooth="yes"/>
      <point x="221" y="715"/>
      <point x="97" y="643"/>
      <point x="97" y="521" type="curve" smooth="yes"/>
      <point x="97" y="484"/>
      <point x="109" y="448"/>
      <point x="130" y="433" type="curve"/>
      <point x="104" y="408"/>
      <point x="77" y="360"/>
      <point x="77" y="312" type="curve" smooth="yes"/>
      <point x="77" y="228"/>
      <point x="143" y="190"/>
      <point x="228" y="187" type="curve" smooth="yes"/>
      <point x="287" y="185"/>
      <point x="350" y="172"/>
      <point x="350" y="101" type="curve" smooth="yes"/>
      <point x="350" y="4"/>
      <point x="250" y="-55"/>
      <point x="171" y="-55" type="curve" smooth="yes"/>
      <point x="111" y="-55"/>
      <point x="68" y="-31"/>
      <point x="29" y="18" type="curve"/>
      <point x="1" y="-3" type="line"/>
      <point x="33" y="-48"/>
      <point x="81" y="-88"/>
      <point x="164" y="-88" type="curve" smooth="yes"/>
      <point x="256" y="-88"/>
      <point x="386" y="-20"/>
      <point x="386" y="111" type="curve" smooth="yes"/>
      <point x="386" y="144"/>
      <point x="376" y="171"/>
    </contour>
    <contour>
      <point x="110" y="312" type="curve" smooth="yes"/>
      <point x="110" y="356"/>
      <point x="133" y="396"/>
      <point x="159" y="418" type="curve"/>
      <point x="183" y="406"/>
      <point x="216" y="400"/>
      <point x="251" y="400" type="curve" smooth="yes"/>
      <point x="310" y="400"/>
      <point x="379" y="376"/>
      <point x="379" y="303" type="curve" smooth="yes"/>
      <point x="379" y="263"/>
      <point x="355" y="220"/>
      <point x="325" y="197" type="curve"/>
      <point x="262" y="226"/>
      <point x="110" y="193"/>
    </contour>
  </outline>
</glyph>
<glyph name="onequarter" format="1">
  <advance width="732"/>
  <unicode hex="00BC"/>
  <outline>
    <contour>
      <point x="552" y="0" type="line"/>
      <point x="578" y="0" type="line"/>
      <point x="602" y="108" type="line"/>
      <point x="655" y="108" type="line"/>
      <point x="660" y="134" type="line"/>
      <point x="607" y="134" type="line"/>
      <point x="661" y="388" type="line"/>
      <point x="642" y="388" type="line"/>
      <point x="360" y="132" type="line"/>
      <point x="355" y="108" type="line"/>
      <point x="575" y="108" type="line"/>
    </contour>
    <contour>
      <point x="394" y="134" type="line"/>
      <point x="626" y="345" type="line"/>
      <point x="581" y="134" type="line"/>
    </contour>
    <contour>
      <point x="58" y="-2" type="line"/>
      <point x="734" y="695" type="line"/>
      <point x="716" y="712" type="line"/>
      <point x="40" y="16" type="line"/>
    </contour>
    <contour>
      <point x="173" y="364" type="line"/>
      <point x="252" y="731" type="line"/>
      <point x="224" y="731" type="line"/>
      <point x="223" y="728"/>
      <point x="162" y="677"/>
      <point x="122" y="677" type="curve"/>
      <point x="116" y="650" type="line"/>
      <point x="147" y="650"/>
      <point x="201" y="681"/>
      <point x="218" y="698" type="curve"/>
      <point x="147" y="364" type="line"/>
      <point x="69" y="364" type="line"/>
      <point x="63" y="337" type="line"/>
      <point x="241" y="337" type="line"/>
      <point x="247" y="364" type="line"/>
    </contour>
  </outline>
</glyph>
<glyph name="Aring" format="1">
  <advance width="648"/>
  <unicode hex="00C5"/>
  <outline>
    <contour>
      <point x="-41" y="0" type="line"/>
      <point x="-3" y="0" type="line"/>
      <point x="148" y="245" type="line"/>
      <point x="484" y="245" type="line"/>
      <point x="531" y="0" type="line"/>
      <point x="568" y="0" type="line"/>
      <point x="430" y="710" type="line"/>
      <point x="400" y="710" type="line"/>
    </contour>
    <contour>
      <point x="164" y="275" type="line"/>
      <point x="406" y="666" type="line"/>
      <point x="480" y="275" type="line"/>
    </contour>
    <contour>
      <point x="384" y="847" type="curve" smooth="yes"/>
      <point x="384" y="819"/>
      <point x="403" y="799"/>
      <point x="432" y="799" type="curve" smooth="yes"/>
      <point x="471" y="799"/>
      <point x="505" y="831"/>
      <point x="505" y="870" type="curve" smooth="yes"/>
      <point x="505" y="898"/>
      <point x="487" y="918"/>
      <point x="458" y="918" type="curve" smooth="yes"/>
      <point x="419" y="918"/>
      <point x="384" y="887"/>
    </contour>
    <contour>
      <point x="453" y="899" type="curve" smooth="yes"/>
      <point x="471" y="899"/>
      <point x="485" y="886"/>
      <point x="485" y="866" type="curve" smooth="yes"/>
      <point x="485" y="839"/>
      <point x="458" y="818"/>
      <point x="436" y="818" type="curve" smooth="yes"/>
      <point x="417" y="818"/>
      <point x="405" y="832"/>
      <point x="405" y="851" type="curve" smooth="yes"/>
      <point x="405" y="879"/>
      <point x="429" y="899"/>
    </contour>
  </outline>
</glyph>
<glyph name="Eth" format="1">
  <advance width="693"/>
  <unicode hex="00D0"/>
  <outline>
    <contour>
      <point x="46" y="342" type="line"/>
      <point x="109" y="342" type="line"/>
      <point x="37" y="0" type="line"/>
      <point x="258" y="0" type="line" smooth="yes"/>
      <point x="492" y="0"/>
      <point x="663" y="188"/>
      <point x="663" y="439" type="curve" smooth="yes"/>
      <point x="663" y="591"/>
      <point x="583" y="710"/>
      <point x="409" y="710" type="curve" smooth="yes"/>
      <point x="188" y="710" type="line"/>
      <point x="116" y="372" type="line"/>
      <point x="52" y="372" type="line"/>
    </contour>
    <contour>
      <point x="78" y="32" type="line"/>
      <point x="144" y="342" type="line"/>
      <point x="320" y="342" type="line"/>
      <point x="326" y="372" type="line"/>
      <point x="150" y="372" type="line"/>
      <point x="216" y="678" type="line"/>
      <point x="402" y="678" type="line" smooth="yes"/>
      <point x="552" y="678"/>
      <point x="628" y="576"/>
      <point x="628" y="433" type="curve" smooth="yes"/>
      <point x="628" y="222"/>
      <point x="491" y="32"/>
      <point x="265" y="32" type="curve" smooth="yes"/>
    </contour>
  </outline>
</glyph>
<glyph name="Odieresis" format="1">
  <advance width="725"/>
  <unicode hex="00D6"/>
  <outline>
    <contour>
      <point x="432" y="835" type="line"/>
      <point x="449" y="917" type="line"/>
      <point x="418" y="917" type="line"/>
      <point x="401" y="835" type="line"/>
    </contour>
    <contour>
      <point x="552" y="835" type="line"/>
      <point x="569" y="917" type="line"/>
      <point x="538" y="917" type="line"/>
      <point x="521" y="835" type="line"/>
    </contour>
    <contour>
      <point x="297" y="-5" type="curve" smooth="yes"/>
      <point x="501" y="-5"/>
      <point x="697" y="204"/>
      <point x="697" y="421" type="curve" smooth="yes"/>
      <point x="697" y="571"/>
      <point x="609" y="715"/>
      <point x="451" y="715" type="curve" smooth="yes"/>
      <point x="247" y="715"/>
      <point x="50" y="505"/>
      <point x="50" y="287" type="curve" smooth="yes"/>
      <point x="50" y="135"/>
      <point x="139" y="-5"/>
    </contour>
    <contour>
      <point x="305" y="28" type="curve" smooth="yes"/>
      <point x="166" y="28"/>
      <point x="85" y="150"/>
      <point x="85" y="291" type="curve" smooth="yes"/>
      <point x="85" y="478"/>
      <point x="251" y="682"/>
      <point x="444" y="682" type="curve" smooth="yes"/>
      <point x="580" y="682"/>
      <point x="663" y="559"/>
      <point x="663" y="418" type="curve" smooth="yes"/>
      <point x="663" y="233"/>
      <point x="498" y="28"/>
    </contour>
  </outline>
</glyph>
<glyph name="Oslash" format="1">
  <advance width="725"/>
  <unicode hex="00D8"/>
  <outline>
    <contour>
      <point x="650" y="710" type="line"/>
      <point x="605" y="655" type="line"/>
      <point x="565" y="692"/>
      <point x="513" y="715"/>
      <point x="451" y="715" type="curve" smooth="yes"/>
      <point x="247" y="715"/>
      <point x="50" y="505"/>
      <point x="50" y="287" type="curve" smooth="yes"/>
      <point x="50" y="206"/>
      <point x="75" y="129"/>
      <point x="122" y="74" type="curve"/>
      <point x="61" y="0" type="line"/>
      <point x="101" y="0" type="line"/>
      <point x="144" y="52" type="line"/>
      <point x="183" y="16"/>
      <point x="235" y="-5"/>
      <point x="297" y="-5" type="curve" smooth="yes"/>
      <point x="501" y="-5"/>
      <point x="697" y="204"/>
      <point x="697" y="421" type="curve" smooth="yes"/>
      <point x="697" y="500"/>
      <point x="672" y="577"/>
      <point x="626" y="633" type="curve"/>
      <point x="690" y="710" type="line"/>
    </contour>
    <contour>
      <point x="85" y="291" type="curve" smooth="yes"/>
      <point x="85" y="478"/>
      <point x="251" y="682"/>
      <point x="444" y="682" type="curve" smooth="yes"/>
      <point x="499" y="682"/>
      <point x="546" y="661"/>
      <point x="582" y="628" type="curve"/>
      <point x="146" y="102" type="line"/>
      <point x="106" y="151"/>
      <point x="85" y="218"/>
    </contour>
    <contour>
      <point x="305" y="28" type="curve" smooth="yes"/>
      <point x="249" y="28"/>
      <point x="203" y="47"/>
      <point x="167" y="80" type="curve"/>
      <point x="603" y="605" type="line"/>
      <point x="641" y="556"/>
      <point x="663" y="489"/>
      <point x="663" y="418" type="curve" smooth="yes"/>
      <point x="663" y="233"/>
      <point x="498" y="28"/>
    </contour>
  </outline>
</glyph>
<glyph name="thorn" format="1">
  <advance width="576"/>
  <unicode hex="00FE"/>
  <outline>
    <contour>
      <point x="-30" y="-213" type="line"/>
      <point x="4" y="-213" type="line"/>
      <point x="70" y="98" type="line"/>
      <point x="95" y="35"/>
      <point x="148" y="-12"/>
      <point x="236" y="-12" type="curve" smooth="yes"/>
      <point x="409" y="-12"/>
      <point x="531" y="168"/>
      <point x="531" y="321" type="curve" smooth="yes"/>
      <point x="531" y="427"/>
      <point x="472" y="528"/>
      <point x="352" y="528" type="curve" smooth="yes"/>
      <point x="268" y="528"/>
      <point x="197" y="478"/>
      <point x="136" y="408" type="curve"/>
      <point x="200" y="710" type="line"/>
      <point x="166" y="710" type="line"/>
    </contour>
    <contour>
      <point x="245" y="21" type="curve" smooth="yes"/>
      <point x="162" y="21"/>
      <point x="83" y="80"/>
      <point x="83" y="155" type="curve" smooth="yes"/>
      <point x="83" y="158"/>
      <point x="83" y="162"/>
      <point x="85" y="170" type="curve" smooth="yes"/>
      <point x="124" y="354" type="line"/>
      <point x="178" y="432"/>
      <point x="257" y="496"/>
      <point x="344" y="496" type="curve" smooth="yes"/>
      <point x="442" y="496"/>
      <point x="496" y="417"/>
      <point x="496" y="313" type="curve" smooth="yes"/>
      <point x="496" y="155"/>
      <point x="371" y="21"/>
    </contour>
  </outline>
</glyph>
<glyph name="ydieresis" format="1">
  <advance width="468"/>
  <unicode hex="00FF"/>
  <outline>
    <contour>
      <point x="-33" y="-224" type="line"/>
      <point x="54" y="-213"/>
      <point x="94" y="-175"/>
      <point x="188" y="-26" type="curve" smooth="yes"/>
      <point x="269" y="103" type="line" smooth="yes"/>
      <point x="403" y="314"/>
      <point x="440" y="391"/>
      <point x="476" y="520" type="curve"/>
      <point x="442" y="520" type="line"/>
      <point x="408" y="399"/>
      <point x="368" y="317"/>
      <point x="245" y="121" type="curve" smooth="yes"/>
      <point x="192" y="36" type="line"/>
      <point x="88" y="520" type="line"/>
      <point x="52" y="520" type="line"/>
      <point x="167" y="-2" type="line"/>
      <point x="129" y="-61" type="line" smooth="yes"/>
      <point x="71" y="-150"/>
      <point x="45" y="-181"/>
      <point x="-37" y="-196" type="curve"/>
    </contour>
    <contour>
      <point x="249" y="647" type="line"/>
      <point x="266" y="729" type="line"/>
      <point x="235" y="729" type="line"/>
      <point x="218" y="647" type="line"/>
    </contour>
    <contour>
      <point x="369" y="647" type="line"/>
      <point x="386" y="729" type="line"/>
      <point x="355" y="729" type="line"/>
      <point x="338" y="647" type="line"/>
    </contour>
  </outline>
</glyph>
<glyph name="Aogonek" format="1">
  <advance width="648"/>
  <unicode hex="0104"/>
  <outline>
    <contour>
      <point x="486" y="-164" type="curve"/>
      <point x="505" y="-141" type="line"/>
      <point x="481" y="-136"/>
      <point x="469" y="-123"/>
      <point x="469" y="-104" type="curve" smooth="yes"/>
      <point x="469" y="-71"/>
      <point x="491" y="-47"/>
      <point x="568" y="0" type="curve"/>
      <point x="430" y="710" type="line"/>
      <point x="400" y="710" type="line"/>
      <point x="-41" y="0" type="line"/>
      <point x="-3" y="0" type="line"/>
      <point x="148" y="245" type="line"/>
      <point x="484" y="245" type="line"/>
      <point x="531" y="0" type="line"/>
      <point x="466" y="-44"/>
      <point x="442" y="-75"/>
      <point x="442" y="-111" type="curve" smooth="yes"/>
      <point x="442" y="-136"/>
      <point x="457" y="-156"/>
    </contour>
    <contour>
      <point x="164" y="275" type="line"/>
      <point x="406" y="666" type="line"/>
      <point x="480" y="275" type="line"/>
    </contour>
  </outline>
</glyph>
<glyph name="Cdotaccent" format="1">
  <advance width="661"/>
  <unicode hex="010A"/>
  <outline>
    <contour>
      <point x="295" y="-6" type="curve" smooth="yes"/>
      <point x="399" y="-6"/>
      <point x="530" y="52"/>
      <point x="598" y="159" type="curve"/>
      <point x="570" y="171" type="line"/>
      <point x="499" y="71"/>
      <point x="391" y="27"/>
      <point x="306" y="27" type="curve" smooth="yes"/>
      <point x="171" y="27"/>
      <point x="85" y="149"/>
      <point x="85" y="294" type="curve" smooth="yes"/>
      <point x="85" y="472"/>
      <point x="236" y="681"/>
      <point x="443" y="681" type="curve" smooth="yes"/>
      <point x="525" y="681"/>
      <point x="607" y="646"/>
      <point x="635" y="545" type="curve"/>
      <point x="668" y="559" type="line"/>
      <point x="646" y="649"/>
      <point x="573" y="714"/>
      <point x="453" y="714" type="curve" smooth="yes"/>
      <point x="221" y="714"/>
      <point x="51" y="487"/>
      <point x="51" y="293" type="curve" smooth="yes"/>
      <point x="51" y="140"/>
      <point x="140" y="-6"/>
    </contour>
    <contour>
      <point x="503" y="835" type="line"/>
      <point x="520" y="918" type="line"/>
      <point x="488" y="918" type="line"/>
      <point x="470" y="835" type="line"/>
    </contour>
  </outline>
</glyph>
<glyph name="Dcaron" format="1">
  <advance width="686"/>
  <unicode hex="010E"/>
  <outline>
    <contour>
      <point x="426" y="826" type="line"/>
      <point x="452" y="826" type="line"/>
      <point x="559" y="904" type="line"/>
      <point x="540" y="918" type="line"/>
      <point x="446" y="855" type="line"/>
      <point x="378" y="918" type="line"/>
      <point x="353" y="904" type="line"/>
    </contour>
    <contour>
      <point x="30" y="0" type="line"/>
      <point x="251" y="0" type="line" smooth="yes"/>
      <point x="485" y="0"/>
      <point x="656" y="188"/>
      <point x="656" y="439" type="curve" smooth="yes"/>
      <point x="656" y="591"/>
      <point x="576" y="710"/>
      <point x="402" y="710" type="curve" smooth="yes"/>
      <point x="181" y="710" type="line"/>
    </contour>
    <contour>
      <point x="71" y="32" type="line"/>
      <point x="209" y="678" type="line"/>
      <point x="395" y="678" type="line" smooth="yes"/>
      <point x="545" y="678"/>
      <point x="621" y="576"/>
      <point x="621" y="433" type="curve" smooth="yes"/>
      <point x="621" y="222"/>
      <point x="484" y="32"/>
      <point x="258" y="32" type="curve" smooth="yes"/>
    </contour>
  </outline>
</glyph>
<glyph name="ibreve" format="1">
  <advance width="191"/>
  <unicode hex="012D"/>
  <outline>
    <contour>
      <point x="15" y="0" type="line"/>
      <point x="49" y="0" type="line"/>
      <point x="159" y="520" type="line"/>
      <point x="125" y="520" type="line"/>
    </contour>
    <contour>
      <point x="165" y="668" type="curve" smooth="yes"/>
      <point x="141" y="668"/>
      <point x="124" y="691"/>
      <point x="124" y="718" type="curve" smooth="yes"/>
      <point x="124" y="721"/>
      <point x="125" y="726"/>
      <point x="126" y="730" type="curve"/>
      <point x="100" y="730" type="line"/>
      <point x="99" y="724"/>
      <point x="98" y="719"/>
      <point x="98" y="713" type="curve" smooth="yes"/>
      <point x="98" y="675"/>
      <point x="124" y="646"/>
      <point x="161" y="646" type="curve" smooth="yes"/>
      <point x="202" y="646"/>
      <point x="246" y="684"/>
      <point x="256" y="730" type="curve"/>
      <point x="232" y="730" type="line"/>
      <point x="221" y="696"/>
      <point x="191" y="668"/>
    </contour>
  </outline>
</glyph>
<glyph name="iogonek" format="1">
  <advance width="192"/>
  <unicode hex="012F"/>
  <outline>
    <contour>
      <point x="-32" y="-164" type="curve"/>
      <point x="-13" y="-141" type="line"/>
      <point x="-37" y="-136"/>
      <point x="-49" y="-123"/>
      <point x="-49" y="-104" type="curve" smooth="yes"/>
      <point x="-49" y="-71"/>
      <point x="-27" y="-47"/>
      <point x="50" y="0" type="curve"/>
      <point x="160" y="520" type="line"/>
      <point x="126" y="520" type="line"/>
      <point x="16" y="1" type="line"/>
      <point x="-51" y="-44"/>
      <point x="-76" y="-74"/>
      <point x="-76" y="-111" type="curve" smooth="yes"/>
      <point x="-76" y="-136"/>
      <point x="-61" y="-156"/>
    </contour>
    <contour>
      <point x="153" y="646" type="line"/>
      <point x="187" y="646" type="line"/>
      <point x="205" y="730" type="line"/>
      <point x="171" y="730" type="line"/>
    </contour>
  </outline>
</glyph>
<glyph name="ij" format="1">
  <advance width="390"/>
  <unicode hex="0133"/>
  <outline>
    <contour>
      <point x="15" y="0" type="line"/>
      <point x="49" y="0" type="line"/>
      <point x="159" y="520" type="line"/>
      <point x="125" y="520" type="line"/>
    </contour>
    <contour>
      <point x="152" y="646" type="line"/>
      <point x="186" y="646" type="line"/>
      <point x="204" y="730" type="line"/>
      <point x="170" y="730" type="line"/>
    </contour>
    <contour>
      <point x="77" y="-173" type="curve" smooth="yes"/>
      <point x="141" y="-173"/>
      <point x="222" y="-114"/>
      <point x="240" y="-32" type="curve" smooth="yes"/>
      <point x="357" y="520" type="line"/>
      <point x="323" y="520" type="line"/>
      <point x="206" y="-33" type="line" smooth="yes"/>
      <point x="193" y="-94"/>
      <point x="131" y="-141"/>
      <point x="81" y="-141" type="curve" smooth="yes"/>
      <point x="56" y="-141"/>
      <point x="28" y="-136"/>
      <point x="11" y="-116" type="curve"/>
      <point x="-14" y="-138" type="line"/>
      <point x="6" y="-164"/>
      <point x="39" y="-173"/>
    </contour>
    <contour>
      <point x="350" y="646" type="line"/>
      <point x="384" y="646" type="line"/>
      <point x="402" y="730" type="line"/>
      <point x="368" y="730" type="line"/>
    </contour>
  </outline>
</glyph>
<glyph name="Lcaron" format="1">
  <advance width="553"/>
  <unicode hex="013D"/>
  <outline>
    <contour>
      <point x="289" y="638" type="line"/>
      <point x="388" y="730" type="line"/>
      <point x="344" y="730" type="line"/>
      <point x="268" y="651" type="line"/>
    </contour>
    <contour>
      <point x="30" y="0" type="line"/>
      <point x="477" y="0" type="line"/>
      <point x="484" y="32" type="line"/>
      <point x="71" y="32" type="line"/>
      <point x="216" y="710" type="line"/>
      <point x="181" y="710" type="line"/>
    </contour>
  </outline>
</glyph>
<glyph name="Eng" format="1">
  <advance width="742"/>
  <unicode hex="014A"/>
  <outline>
    <contour>
      <point x="412" y="-173" type="curve" smooth="yes"/>
      <point x="477" y="-173"/>
      <point x="558" y="-115"/>
      <point x="576" y="-33" type="curve" smooth="yes"/>
      <point x="733" y="709" type="line"/>
      <point x="699" y="709" type="line"/>
      <point x="560" y="56" type="line"/>
      <point x="207" y="710" type="line"/>
      <point x="181" y="710" type="line"/>
      <point x="30" y="0" type="line"/>
      <point x="65" y="0" type="line"/>
      <point x="202" y="644" type="line"/>
      <point x="549" y="0" type="line"/>
      <point x="542" y="-33" type="line" smooth="yes"/>
      <point x="528" y="-94"/>
      <point x="467" y="-141"/>
      <point x="417" y="-141" type="curve" smooth="yes"/>
      <point x="391" y="-141"/>
      <point x="364" y="-136"/>
      <point x="346" y="-116" type="curve"/>
      <point x="321" y="-138" type="line"/>
      <point x="342" y="-164"/>
      <point x="374" y="-173"/>
    </contour>
  </outline>
</glyph>
<glyph name="Ohungarumlaut" format="1">
  <advance width="725"/>
  <unicode hex="0150"/>
  <outline>
    <contour>
      <point x="497" y="918" type="line"/>
      <point x="456" y="918" type="line"/>
      <point x="381" y="839" type="line"/>
      <point x="399" y="826" type="line"/>
    </contour>
    <contour>
      <point x="601" y="918" type="line"/>
      <point x="559" y="918" type="line"/>
      <point x="484" y="839" type="line"/>
      <point x="503" y="826" type="line"/>
    </contour>
    <contour>
      <point x="297" y="-5" type="curve" smooth="yes"/>
      <point x="501" y="-5"/>
      <point x="697" y="204"/>
      <point x="697" y="421" type="curve" smooth="yes"/>
      <point x="697" y="571"/>
      <point x="609" y="715"/>
      <point x="451" y="715" type="curve" smooth="yes"/>
      <point x="247" y="715"/>
      <point x="50" y="505"/>
      <point x="50" y="287" type="curve" smooth="yes"/>
      <point x="50" y="135"/>
      <point x="139" y="-5"/>
    </contour>
    <contour>
      <point x="305" y="28" type="curve" smooth="yes"/>
      <point x="166" y="28"/>
      <point x="85" y="150"/>
      <point x="85" y="291" type="curve" smooth="yes"/>
      <point x="85" y="478"/>
      <point x="251" y="682"/>
      <point x="444" y="682" type="curve" smooth="yes"/>
      <point x="580" y="682"/>
      <point x="663" y="559"/>
      <point x="663" y="418" type="curve" smooth="yes"/>
      <point x="663" y="233"/>
      <point x="498" y="28"/>
    </contour>
  </outline>
</glyph>
<glyph name="racute" format="1">
  <advance width="325"/>
  <unicode hex="0155"/>
  <outline>
    <contour>
      <point x="331" y="730" type="line"/>
      <point x="287" y="730" type="line"/>
      <point x="211" y="651" type="line"/>
      <point x="232" y="638" type="line"/>
    </contour>
    <contour>
      <point x="15" y="0" type="line"/>
      <point x="49" y="0" type="line"/>
      <point x="118" y="327" type="line"/>
      <point x="165" y="424"/>
      <point x="249" y="484"/>
      <point x="341" y="488" type="curve"/>
      <point x="348" y="519" type="line"/>
      <point x="343" y="520"/>
      <point x="341" y="520"/>
      <point x="338" y="520" type="curve" smooth="yes"/>
      <point x="266" y="520"/>
      <point x="185" y="470"/>
      <point x="130" y="388" type="curve"/>
      <point x="157" y="520" type="line"/>
      <point x="125" y="520" type="line"/>
    </contour>
  </outline>
</glyph>
<glyph name="uni015F" format="1">
  <advance width="455"/>
  <unicode hex="015F"/>
  <outline>
    <contour>
      <point x="49" y="-147" type="line"/>
      <point x="71" y="-157"/>
      <point x="101" y="-166"/>
      <point x="135" y="-166" type="curve" smooth="yes"/>
      <point x="197" y="-166"/>
      <point x="233" y="-141"/>
      <point x="233" y="-93" type="curve" smooth="yes"/>
      <point x="233" y="-65"/>
      <point x="214" y="-49"/>
      <point x="177" y="-49" type="curve" smooth="yes"/>
      <point x="167" y="-49"/>
      <point x="150" y="-50"/>
      <point x="137" y="-55" type="curve"/>
      <point x="172" y="-10" type="line"/>
      <point x="294" y="-6"/>
      <point x="384" y="64"/>
      <point x="384" y="164" type="curve" smooth="yes"/>
      <point x="384" y="234"/>
      <point x="321" y="255"/>
      <point x="220" y="282" type="curve" smooth="yes"/>
      <point x="143" y="302"/>
      <point x="104" y="315"/>
      <point x="104" y="363" type="curve" smooth="yes"/>
      <point x="104" y="456"/>
      <point x="185" y="499"/>
      <point x="273" y="499" type="curve" smooth="yes"/>
      <point x="334" y="499"/>
      <point x="389" y="477"/>
      <point x="408" y="437" type="curve"/>
      <point x="433" y="454" type="line"/>
      <point x="415" y="497"/>
      <point x="361" y="528"/>
      <point x="283" y="528" type="curve" smooth="yes"/>
      <point x="173" y="528"/>
      <point x="70" y="470"/>
      <point x="70" y="354" type="curve" smooth="yes"/>
      <point x="70" y="292"/>
      <point x="118" y="275"/>
      <point x="207" y="252" type="curve" smooth="yes"/>
      <point x="298" y="228"/>
      <point x="349" y="210"/>
      <point x="349" y="155" type="curve" smooth="yes"/>
      <point x="349" y="73"/>
      <point x="271" y="19"/>
      <point x="169" y="19" type="curve" smooth="yes"/>
      <point x="100" y="19"/>
      <point x="51" y="44"/>
      <point x="9" y="95" type="curve"/>
      <point x="-14" y="72" type="line"/>
      <point x="21" y="21"/>
      <point x="77" y="-5"/>
      <point x="145" y="-9" type="curve"/>
      <point x="89" y="-84" type="line"/>
      <point x="107" y="-78"/>
      <point x="142" y="-69"/>
      <point x="169" y="-69" type="curve" smooth="yes"/>
      <point x="192" y="-69"/>
      <point x="209" y="-76"/>
      <point x="209" y="-97" type="curve" smooth="yes"/>
      <point x="209" y="-129"/>
      <point x="188" y="-143"/>
      <point x="144" y="-143" type="curve" smooth="yes"/>
      <point x="112" y="-143"/>
      <point x="82" y="-134"/>
      <point x="65" y="-125" type="curve"/>
    </contour>
  </outline>
</glyph>
<glyph name="uni0162" format="1">
  <advance width="575"/>
  <unicode hex="0162"/>
  <outline>
    <contour>
      <point x="203" y="0" type="line"/>
      <point x="207" y="0" type="line"/>
      <point x="143" y="-84" type="line"/>
      <point x="161" y="-78"/>
      <point x="196" y="-69"/>
      <point x="223" y="-69" type="curve" smooth="yes"/>
      <point x="246" y="-69"/>
      <point x="263" y="-76"/>
      <point x="263" y="-97" type="curve" smooth="yes"/>
      <point x="263" y="-129"/>
      <point x="242" y="-143"/>
      <point x="198" y="-143" type="curve" smooth="yes"/>
      <point x="166" y="-143"/>
      <point x="136" y="-134"/>
      <point x="119" y="-125" type="curve"/>
      <point x="103" y="-147" type="line"/>
      <point x="125" y="-157"/>
      <point x="155" y="-166"/>
      <point x="189" y="-166" type="curve" smooth="yes"/>
      <point x="251" y="-166"/>
      <point x="287" y="-141"/>
      <point x="287" y="-93" type="curve" smooth="yes"/>
      <point x="287" y="-65"/>
      <point x="268" y="-49"/>
      <point x="231" y="-49" type="curve" smooth="yes"/>
      <point x="221" y="-49"/>
      <point x="204" y="-50"/>
      <point x="191" y="-55" type="curve"/>
      <point x="233" y="0" type="line"/>
      <point x="237" y="0" type="line"/>
      <point x="381" y="678" type="line"/>
      <point x="634" y="678" type="line"/>
      <point x="640" y="710" type="line"/>
      <point x="101" y="710" type="line"/>
      <point x="95" y="678" type="line"/>
      <point x="347" y="678" type="line"/>
    </contour>
  </outline>
</glyph>
<glyph name="Utilde" format="1">
  <advance width="724"/>
  <unicode hex="0168"/>
  <outline>
    <contour>
      <point x="298" y="-5" type="curve" smooth="yes"/>
      <point x="505" y="-5"/>
      <point x="612" y="165"/>
      <point x="652" y="354" type="curve" smooth="yes"/>
      <point x="727" y="710" type="line"/>
      <point x="693" y="710" type="line"/>
      <point x="618" y="354" type="line" smooth="yes"/>
      <point x="584" y="194"/>
      <point x="497" y="28"/>
      <point x="304" y="28" type="curve" smooth="yes"/>
      <point x="162" y="28"/>
      <point x="115" y="118"/>
      <point x="115" y="233" type="curve" smooth="yes"/>
      <point x="115" y="271"/>
      <point x="121" y="313"/>
      <point x="130" y="354" type="curve" smooth="yes"/>
      <point x="205" y="710" type="line"/>
      <point x="171" y="710" type="line"/>
      <point x="95" y="354" type="line" smooth="yes"/>
      <point x="86" y="311"/>
      <point x="81" y="268"/>
      <point x="81" y="227" type="curve" smooth="yes"/>
      <point x="81" y="99"/>
      <point x="135" y="-5"/>
    </contour>
    <contour>
      <point x="530" y="844" type="curve" smooth="yes"/>
      <point x="602" y="844"/>
      <point x="626" y="908"/>
      <point x="628" y="918" type="curve"/>
      <point x="603" y="918" type="line"/>
      <point x="602" y="914"/>
      <point x="588" y="870"/>
      <point x="537" y="870" type="curve" smooth="yes"/>
      <point x="489" y="870"/>
      <point x="476" y="909"/>
      <point x="426" y="909" type="curve" smooth="yes"/>
      <point x="360" y="909"/>
      <point x="336" y="843"/>
      <point x="335" y="834" type="curve"/>
      <point x="360" y="834" type="line"/>
      <point x="362" y="840"/>
      <point x="378" y="882"/>
      <point x="419" y="882" type="curve" smooth="yes"/>
      <point x="458" y="882"/>
      <point x="474" y="844"/>
    </contour>
  </outline>
</glyph>
<glyph name="uni01CB" format="1">
  <advance width="941"/>
  <unicode hex="01CB"/>
  <outline>
    <contour>
      <point x="628" y="-173" type="curve" smooth="yes"/>
      <point x="692" y="-173"/>
      <point x="773" y="-114"/>
      <point x="791" y="-32" type="curve" smooth="yes"/>
      <point x="908" y="520" type="line"/>
      <point x="874" y="520" type="line"/>
      <point x="757" y="-33" type="line" smooth="yes"/>
      <point x="744" y="-94"/>
      <point x="682" y="-141"/>
      <point x="632" y="-141" type="curve" smooth="yes"/>
      <point x="607" y="-141"/>
      <point x="579" y="-136"/>
      <point x="562" y="-116" type="curve"/>
      <point x="537" y="-138" type="line"/>
      <point x="557" y="-164"/>
      <point x="590" y="-173"/>
    </contour>
    <contour>
      <point x="901" y="646" type="line"/>
      <point x="935" y="646" type="line"/>
      <point x="953" y="730" type="line"/>
      <point x="919" y="730" type="line"/>
    </contour>
    <contour>
      <point x="30" y="0" type="line"/>
      <point x="65" y="0" type="line"/>
      <point x="202" y="644" type="line"/>
      <point x="551" y="0" type="line"/>
      <point x="584" y="0" type="line"/>
      <point x="735" y="709" type="line"/>
      <point x="700" y="709" type="line"/>
      <point x="562" y="55" type="line"/>
      <point x="208" y="710" type="line"/>
      <point x="181" y="710" type="line"/>
    </contour>
  </outline>
</glyph>
<glyph name="oinvertedbreve" format="1">
  <advance width="564"/>
  <unicode hex="020F"/>
  <outline>
    <contour>
      <point x="281" y="646" type="curve"/>
      <point x="306" y="646" type="line"/>
      <point x="313" y="678"/>
      <point x="338" y="708"/>
      <point x="373" y="708" type="curve" smooth="yes"/>
      <point x="400" y="708"/>
      <point x="414" y="691"/>
      <point x="414" y="661" type="curve" smooth="yes"/>
      <point x="414" y="656"/>
      <point x="413" y="651"/>
      <point x="412" y="646" type="curve"/>
      <point x="437" y="646" type="line"/>
      <point x="438" y="652"/>
      <point x="438" y="657"/>
      <point x="438" y="663" type="curve" smooth="yes"/>
      <point x="438" y="698"/>
      <point x="417" y="730"/>
      <point x="376" y="730" type="curve" smooth="yes"/>
      <point x="329" y="730"/>
      <point x="290" y="690"/>
    </contour>
    <contour>
      <point x="216" y="-10" type="curve" smooth="yes"/>
      <point x="370" y="-10"/>
      <point x="518" y="143"/>
      <point x="518" y="309" type="curve" smooth="yes"/>
      <point x="518" y="430"/>
      <point x="444" y="528"/>
      <point x="331" y="528" type="curve" smooth="yes"/>
      <point x="180" y="528"/>
      <point x="28" y="376"/>
      <point x="28" y="207" type="curve" smooth="yes"/>
      <point x="28" y="88"/>
      <point x="101" y="-10"/>
    </contour>
    <contour>
      <point x="222" y="22" type="curve" smooth="yes"/>
      <point x="127" y="22"/>
      <point x="63" y="106"/>
      <point x="63" y="211" type="curve" smooth="yes"/>
      <point x="63" y="361"/>
      <point x="198" y="496"/>
      <point x="324" y="496" type="curve" smooth="yes"/>
      <point x="418" y="496"/>
      <point x="484" y="410"/>
      <point x="484" y="304" type="curve" smooth="yes"/>
      <point x="484" y="155"/>
      <point x="350" y="22"/>
    </contour>
  </outline>
</glyph>
<glyph name="rinvertedbreve" format="1">
  <advance width="325"/>
  <unicode hex="0213"/>
  <outline>
    <contour>
      <point x="172" y="649" type="curve"/>
      <point x="197" y="649" type="line"/>
      <point x="204" y="681"/>
      <point x="229" y="711"/>
      <point x="264" y="711" type="curve" smooth="yes"/>
      <point x="291" y="711"/>
      <point x="305" y="694"/>
      <point x="305" y="664" type="curve" smooth="yes"/>
      <point x="305" y="659"/>
      <point x="304" y="654"/>
      <point x="303" y="649" type="curve"/>
      <point x="328" y="649" type="line"/>
      <point x="329" y="655"/>
      <point x="329" y="660"/>
      <point x="329" y="666" type="curve" smooth="yes"/>
      <point x="329" y="701"/>
      <point x="308" y="733"/>
      <point x="267" y="733" type="curve" smooth="yes"/>
      <point x="220" y="733"/>
      <point x="181" y="693"/>
    </contour>
    <contour>
      <point x="15" y="0" type="line"/>
      <point x="49" y="0" type="line"/>
      <point x="118" y="327" type="line"/>
      <point x="165" y="424"/>
      <point x="249" y="484"/>
      <point x="341" y="488" type="curve"/>
      <point x="348" y="519" type="line"/>
      <point x="343" y="520"/>
      <point x="341" y="520"/>
      <point x="338" y="520" type="curve" smooth="yes"/>
      <point x="266" y="520"/>
      <point x="185" y="470"/>
      <point x="130" y="388" type="curve"/>
      <point x="157" y="520" type="line"/>
      <point x="125" y="520" type="line"/>
    </contour>
  </outline>
</glyph>
<glyph name="ygrave" format="1">
  <advance width="468"/>
  <unicode hex="1EF3"/>
  <outline>
    <contour>
      <point x="-33" y="-224" type="line"/>
      <point x="54" y="-213"/>
      <point x="94" y="-175"/>
      <point x="188" y="-26" type="curve" smooth="yes"/>
      <point x="269" y="103" type="line" smooth="yes"/>
      <point x="403" y="314"/>
      <point x="440" y="391"/>
      <point x="476" y="520" type="curve"/>
      <point x="442" y="520" type="line"/>
      <point x="408" y="399"/>
      <point x="368" y="317"/>
      <point x="245" y="121" type="curve" smooth="yes"/>
      <point x="192" y="36" type="line"/>
      <point x="88" y="520" type="line"/>
      <point x="52" y="520" type="line"/>
      <point x="167" y="-2" type="line"/>
      <point x="129" y="-61" type="line" smooth="yes"/>
      <point x="71" y="-150"/>
      <point x="45" y="-181"/>
      <point x="-37" y="-196" type="curve"/>
    </contour>
    <contour>
      <point x="301" y="638" type="line"/>
      <point x="328" y="651" type="line"/>
      <point x="285" y="730" type="line"/>
      <point x="241" y="730" type="line"/>
    </contour>
  </outline>
</glyph>
<glyph name="emdash" format="1">
  <advance width="845"/>
  <unicode hex="2014"/>
  <outline>
    <contour>
      <point x="769" y="255" type="line"/>
      <point x="775" y="288" type="line"/>
      <point x="63" y="288" type="line"/>
      <point x="57" y="255" type="line"/>
    </contour>
  </outline>
</glyph>
<glyph name="fivesuperior" format="1">
  <advance width="354"/>
  <unicode hex="2075"/>
  <outline>
    <contour>
      <point x="254" y="667" type="curve" smooth="yes"/>
      <point x="216" y="667"/>
      <point x="178" y="655"/>
      <point x="148" y="631" type="curve"/>
      <point x="215" y="784" type="line"/>
      <point x="398" y="784" type="line"/>
      <point x="404" y="810" type="line"/>
      <point x="200" y="810" type="line"/>
      <point x="195" y="795"/>
      <point x="122" y="632"/>
      <point x="107" y="595" type="curve"/>
      <point x="133" y="595" type="line"/>
      <point x="161" y="624"/>
      <point x="205" y="643"/>
      <point x="246" y="643" type="curve" smooth="yes"/>
      <point x="297" y="643"/>
      <point x="343" y="614"/>
      <point x="343" y="561" type="curve" smooth="yes"/>
      <point x="343" y="493"/>
      <point x="277" y="442"/>
      <point x="203" y="442" type="curve" smooth="yes"/>
      <point x="151" y="442"/>
      <point x="114" y="467"/>
      <point x="100" y="505" type="curve"/>
      <point x="77" y="494" type="line"/>
      <point x="91" y="448"/>
      <point x="136" y="417"/>
      <point x="196" y="417" type="curve" smooth="yes"/>
      <point x="285" y="417"/>
      <point x="371" y="479"/>
      <point x="371" y="566" type="curve" smooth="yes"/>
      <point x="371" y="626"/>
      <point x="323" y="667"/>
    </contour>
  </outline>
</glyph>
<glyph name="zeroinferior" format="1">
  <advance width="427"/>
  <unicode hex="2080"/>
  <outline>
    <contour>
      <point x="132" y="-85" type="curve" smooth="yes"/>
      <point x="254" y="-85"/>
      <point x="350" y="40"/>
      <point x="350" y="147" type="curve" smooth="yes"/>
      <point x="350" y="222"/>
      <point x="310" y="308"/>
      <point x="215" y="308" type="curve" smooth="yes"/>
      <point x="94" y="308"/>
      <point x="-4" y="181"/>
      <point x="-4" y="75" type="curve" smooth="yes"/>
      <point x="-4" y="-1"/>
      <point x="36" y="-85"/>
    </contour>
    <contour>
      <point x="24" y="78" type="curve" smooth="yes"/>
      <point x="24" y="161"/>
      <point x="99" y="281"/>
      <point x="209" y="281" type="curve" smooth="yes"/>
      <point x="285" y="281"/>
      <point x="322" y="211"/>
      <point x="322" y="143" type="curve" smooth="yes"/>
      <point x="322" y="62"/>
      <point x="248" y="-59"/>
      <point x="138" y="-59" type="curve" smooth="yes"/>
      <point x="60" y="-59"/>
      <point x="24" y="11"/>
    </contour>
  </outline>
</glyph>
<glyph name="uni20B9" format="1">
  <advance width="411"/>
  <unicode hex="20B9"/>
  <outline>
    <contour>
      <point x="435" y="614" type="line"/>
      <point x="333" y="614" type="line"/>
      <point x="321" y="641"/>
      <point x="303" y="666"/>
      <point x="280" y="683" type="curve"/>
      <point x="450" y="683" type="line"/>
      <point x="456" y="710" type="line"/>
      <point x="127" y="710" type="line"/>
      <point x="120" y="678" type="line"/>
      <point x="189" y="678" type="line" smooth="yes"/>
      <point x="234" y="678"/>
      <point x="270" y="652"/>
      <point x="291" y="614" type="curve"/>
      <point x="106" y="614" type="line"/>
      <point x="101" y="587" type="line"/>
      <point x="303" y="587" type="line"/>
      <point x="310" y="568"/>
      <point x="313" y="547"/>
      <point x="313" y="526" type="curve" smooth="yes"/>
      <point x="313" y="423"/>
      <point x="226" y="306"/>
      <point x="116" y="306" type="curve" smooth="yes"/>
      <point x="81" y="306" type="line"/>
      <point x="203" y="0" type="line"/>
      <point x="243" y="0" type="line"/>
      <point x="132" y="278" type="line"/>
      <point x="250" y="290"/>
      <point x="349" y="411"/>
      <point x="349" y="531" type="curve" smooth="yes"/>
      <point x="349" y="550"/>
      <point x="346" y="569"/>
      <point x="341" y="587" type="curve"/>
      <point x="430" y="587" type="line"/>
    </contour>
  </outline>
</glyph>
<glyph name="twothirds" format="1">
  <advance width="788"/>
  <unicode hex="2154"/>
  <outline>
    <contour>
      <point x="329" y="338" type="line"/>
      <point x="334" y="364" type="line"/>
      <point x="95" y="364" type="line"/>
      <point x="103" y="403"/>
      <point x="126" y="462"/>
      <point x="227" y="496" type="curve" smooth="yes"/>
      <point x="299" y="520"/>
      <point x="391" y="549"/>
      <point x="391" y="640" type="curve" smooth="yes"/>
      <point x="391" y="690"/>
      <point x="358" y="731"/>
      <point x="283" y="731" type="curve" smooth="yes"/>
      <point x="192" y="731"/>
      <point x="132" y="671"/>
      <point x="126" y="664" type="curve"/>
      <point x="141" y="646" type="line"/>
      <point x="162" y="668"/>
      <point x="208" y="705"/>
      <point x="275" y="705" type="curve" smooth="yes"/>
      <point x="335" y="705"/>
      <point x="361" y="672"/>
      <point x="361" y="635" type="curve" smooth="yes"/>
      <point x="361" y="556"/>
      <point x="275" y="539"/>
      <point x="207" y="514" type="curve" smooth="yes"/>
      <point x="126" y="485"/>
      <point x="74" y="439"/>
      <point x="53" y="338" type="curve"/>
    </contour>
    <contour>
      <point x="89" y="-2" type="line"/>
      <point x="765" y="695" type="line"/>
      <point x="747" y="712" type="line"/>
      <point x="71" y="16" type="line"/>
    </contour>
    <contour>
      <point x="538" y="-5" type="curve" smooth="yes"/>
      <point x="626" y="-5"/>
      <point x="707" y="44"/>
      <point x="707" y="115" type="curve" smooth="yes"/>
      <point x="707" y="156"/>
      <point x="678" y="189"/>
      <point x="630" y="198" type="curve"/>
      <point x="700" y="213"/>
      <point x="736" y="249"/>
      <point x="736" y="301" type="curve" smooth="yes"/>
      <point x="736" y="353"/>
      <point x="688" y="393"/>
      <point x="616" y="393" type="curve" smooth="yes"/>
      <point x="558" y="393"/>
      <point x="500" y="367"/>
      <point x="472" y="328" type="curve"/>
      <point x="487" y="309" type="line"/>
      <point x="511" y="344"/>
      <point x="558" y="368"/>
      <point x="611" y="368" type="curve" smooth="yes"/>
      <point x="667" y="368"/>
      <point x="707" y="339"/>
      <point x="707" y="296" type="curve" smooth="yes"/>
      <point x="707" y="240"/>
      <point x="651" y="210"/>
      <point x="560" y="210" type="curve" smooth="yes"/>
      <point x="539" y="210" type="line"/>
      <point x="534" y="186" type="line"/>
      <point x="555" y="186" type="line" smooth="yes"/>
      <point x="633" y="186"/>
      <point x="680" y="158"/>
      <point x="680" y="113" type="curve" smooth="yes"/>
      <point x="680" y="61"/>
      <point x="617" y="21"/>
      <point x="544" y="21" type="curve" smooth="yes"/>
      <point x="476" y="21"/>
      <point x="437" y="60"/>
      <point x="437" y="102" type="curve"/>
      <point x="415" y="89" type="line"/>
      <point x="415" y="24"/>
      <point x="482" y="-5"/>
    </contour>
  </outline>
</glyph>
<glyph name="radical" format="1">
  <advance width="385"/>
  <unicode hex="221A"/>
  <outline>
    <contour>
      <point x="23" y="336" type="line"/>
      <point x="103" y="336" type="line"/>
      <point x="197" y="0" type="line"/>
      <point x="241" y="0" type="line"/>
      <point x="381" y="790" type="line"/>
      <point x="347" y="790" type="line"/>
      <point x="219" y="37" type="line"/>
      <point x="132" y="365" type="line"/>
      <point x="23" y="365" type="line"/>
    </contour>
  </outline>
</glyph>
<glyph name="P.sc" format="1">
  <advance width="517"/>
  <outline>
    <contour>
      <point x="26" y="0" type="line"/>
      <point x="58" y="0" type="line"/>
      <point x="102" y="207" type="line"/>
      <point x="304" y="207" type="line" smooth="yes"/>
      <point x="410" y="207"/>
      <point x="499" y="307"/>
      <point x="499" y="402" type="curve" smooth="yes"/>
      <point x="499" y="473"/>
      <point x="451" y="542"/>
      <point x="370" y="542" type="curve" smooth="yes"/>
      <point x="141" y="542" type="line"/>
    </contour>
    <contour>
      <point x="109" y="237" type="line"/>
      <point x="167" y="512" type="line"/>
      <point x="362" y="512" type="line" smooth="yes"/>
      <point x="424" y="512"/>
      <point x="465" y="459"/>
      <point x="465" y="398" type="curve" smooth="yes"/>
      <point x="465" y="322"/>
      <point x="398" y="237"/>
      <point x="309" y="237" type="curve" smooth="yes"/>
    </contour>
  </outline>
</glyph>
<glyph name="one.lnum" format="1">
  <advance width="354"/>
  <outline>
    <contour>
      <point x="-2" y="0" type="line"/>
      <point x="279" y="0" type="line"/>
      <point x="286" y="32" type="line"/>
      <point x="166" y="32" type="line"/>
      <point x="312" y="720" type="line"/>
      <point x="277" y="720" type="line"/>
      <point x="274" y="716"/>
      <point x="174" y="621"/>
      <point x="108" y="621" type="curve"/>
      <point x="101" y="588" type="line"/>
      <point x="152" y="588"/>
      <point x="240" y="643"/>
      <point x="267" y="674" type="curve"/>
      <point x="131" y="32" type="line"/>
      <point x="4" y="32" type="line"/>
    </contour>
  </outline>
</glyph>
<glyph name="three.denominator" format="1">
  <advance width="366"/>
  <outline>
    <contour>
      <point x="115" y="-5" type="curve" smooth="yes"/>
      <point x="203" y="-5"/>
      <point x="284" y="44"/>
      <point x="284" y="115" type="curve" smooth="yes"/>
      <point x="284" y="156"/>
      <point x="255" y="189"/>
      <point x="207" y="198" type="curve"/>
      <point x="277" y="213"/>
      <point x="313" y="249"/>
      <point x="313" y="301" type="curve" smooth="yes"/>
      <point x="313" y="353"/>
      <point x="265" y="393"/>
      <point x="193" y="393" type="curve" smooth="yes"/>
      <point x="135" y="393"/>
      <point x="77" y="367"/>
      <point x="49" y="328" type="curve"/>
      <point x="64" y="309" type="line"/>
      <point x="88" y="344"/>
      <point x="135" y="368"/>
      <point x="188" y="368" type="curve" smooth="yes"/>
      <point x="244" y="368"/>
      <point x="284" y="339"/>
      <point x="284" y="296" type="curve" smooth="yes"/>
      <point x="284" y="240"/>
      <point x="228" y="210"/>
      <point x="137" y="210" type="curve" smooth="yes"/>
      <point x="116" y="210" type="line"/>
      <point x="111" y="186" type="line"/>
      <point x="132" y="186" type="line" smooth="yes"/>
      <point x="210" y="186"/>
      <point x="257" y="158"/>
      <point x="257" y="113" type="curve" smooth="yes"/>
      <point x="257" y="61"/>
      <point x="194" y="21"/>
      <point x="121" y="21" type="curve" smooth="yes"/>
      <point x="53" y="21"/>
      <point x="14" y="60"/>
      <point x="14" y="102" type="curve"/>
      <point x="-8" y="89" type="line"/>
      <point x="-8" y="24"/>
      <point x="59" y="-5"/>
    </contour>
  </outline>
</glyph>
<glyph name="zero.numerator" format="1">
  <advance width="426"/>
  <outline>
    <contour>
      <point x="221" y="337" type="curve" smooth="yes"/>
      <point x="343" y="337"/>
      <point x="439" y="463"/>
      <point x="439" y="570" type="curve" smooth="yes"/>
      <point x="439" y="645"/>
      <point x="399" y="730"/>
      <point x="304" y="730" type="curve" smooth="yes"/>
      <point x="183" y="730"/>
      <point x="85" y="604"/>
      <point x="85" y="498" type="curve" smooth="yes"/>
      <point x="85" y="422"/>
      <point x="126" y="337"/>
    </contour>
    <contour>
      <point x="113" y="501" type="curve" smooth="yes"/>
      <point x="113" y="583"/>
      <point x="188" y="704"/>
      <point x="299" y="704" type="curve" smooth="yes"/>
      <point x="375" y="704"/>
      <point x="412" y="634"/>
      <point x="412" y="566" type="curve" smooth="yes"/>
      <point x="412" y="484"/>
      <point x="337" y="364"/>
      <point x="227" y="364" type="curve" smooth="yes"/>
      <point x="149" y="364"/>
      <point x="113" y="433"/>
    </contour>
  </outline>
</glyph>
